<svg width="400" height="300" xmlns="http://www.w3.org/2000/svg">
  <!-- Background -->
  <rect width="400" height="300" fill="#F5F5DC"/>
  
  <!-- Plate -->
  <ellipse cx="200" cy="180" rx="80" ry="60" fill="#FFF" stroke="#CCC" stroke-width="3"/>
  
  <!-- Food items -->
  <!-- Bruschetta -->
  <ellipse cx="160" cy="160" rx="15" ry="8" fill="#D2691E"/>
  <ellipse cx="160" cy="160" rx="12" ry="6" fill="#FF6347"/>
  <circle cx="155" cy="158" r="2" fill="#228B22"/>
  <circle cx="165" cy="162" r="2" fill="#228B22"/>
  
  <!-- Cheese cubes -->
  <rect x="190" y="150" width="12" height="12" fill="#FFD700" rx="2"/>
  <rect x="205" y="155" width="12" height="12" fill="#FFD700" rx="2"/>
  
  <!-- Olives -->
  <circle cx="180" cy="200" r="4" fill="#556B2F"/>
  <circle cx="195" cy="195" r="4" fill="#000"/>
  <circle cx="210" cy="200" r="4" fill="#556B2F"/>
  
  <!-- Crackers -->
  <ellipse cx="240" cy="170" rx="18" ry="10" fill="#DEB887"/>
  <ellipse cx="240" cy="190" rx="18" ry="10" fill="#DEB887"/>
  
  <!-- Garnish -->
  <path d="M 150 140 Q 155 135 160 140 Q 165 135 170 140" stroke="#228B22" stroke-width="2" fill="none"/>
  <path d="M 220 145 Q 225 140 230 145 Q 235 140 240 145" stroke="#228B22" stroke-width="2" fill="none"/>
  
  <!-- Table surface -->
  <rect x="0" y="240" width="400" height="60" fill="#8B4513"/>
  
  <!-- Napkin -->
  <polygon points="120,230 160,225 165,260 125,265" fill="#FFF" stroke="#CCC" stroke-width="1"/>
  
  <!-- Wine glass -->
  <path d="M 300 160 Q 320 160 320 180 Q 320 200 310 210 L 310 240 L 290 240 L 290 210 Q 280 200 280 180 Q 280 160 300 160" fill="none" stroke="#000" stroke-width="2"/>
  <ellipse cx="300" cy="165" rx="18" ry="5" fill="#8B0000"/>
  
  <!-- Fork -->
  <line x1="80" y1="200" x2="80" y2="250" stroke="#C0C0C0" stroke-width="3"/>
  <line x1="75" y1="200" x2="75" y2="210" stroke="#C0C0C0" stroke-width="1"/>
  <line x1="78" y1="200" x2="78" y2="210" stroke="#C0C0C0" stroke-width="1"/>
  <line x1="82" y1="200" x2="82" y2="210" stroke="#C0C0C0" stroke-width="1"/>
  <line x1="85" y1="200" x2="85" y2="210" stroke="#C0C0C0" stroke-width="1"/>
</svg>
